<svg width="47" height="46" viewBox="0 0 47 46" fill="none" xmlns="http://www.w3.org/2000/svg">
<path d="M26.4438 20.6562C26.247 16.73 25.9853 14.6206 23.3681 12.0425C20.0306 8.70312 18.787 5.48 21.536 0.5C22.2563 3.83938 22.518 6.82812 25.1352 8.645C27.7524 10.4619 29.911 15.3837 26.4438 20.6562ZM21.5381 20.6562C21.4062 18.5469 21.2764 17.4913 19.8359 16.0269C18.0688 14.2681 17.3485 12.5694 18.854 9.875C19.2476 11.6919 19.3125 13.2744 20.7509 14.2119C22.1893 15.1494 23.433 17.8456 21.536 20.6581L21.5381 20.6562ZM33.3804 39.1719H45.2896C46.0099 39.1719 46.2716 39.6406 45.8131 40.1675C45.8131 40.1675 41.167 45.5 34.756 45.5H11.7896L0.73255 40.1675C0.274019 39.6406 0.470831 39.1719 1.19108 39.1719H12.9684C11.3332 38.4106 8.91074 35.0694 8.91074 30.9106V22.1206H37.57V22.8237C38.487 22.1206 39.5988 21.7681 40.7755 21.7681C42.4107 21.7681 45.4865 23.2925 45.4865 25.9288C45.4865 29.7369 42.6725 31.1431 41.0372 32.1406C41.0372 32.1406 37.9615 34.3081 35.8029 36.8281C35.0826 37.9419 34.2325 38.8213 33.3825 39.1719H33.3804ZM40.7734 23.3525C39.7265 23.3525 38.418 23.7631 37.5679 25.6381V30.5019C37.5679 31.1469 37.503 31.9081 37.3711 32.5531C38.8116 31.2631 40.5117 30.3856 40.5117 30.3856C41.5586 29.7406 43.6523 28.5106 43.6523 26.1088C43.7172 24.41 41.9501 23.3525 40.7734 23.3525ZM13.8813 24.0556H12.0493V26.4575H13.8813V24.0556ZM13.8813 27.8638H12.0493V31.79C12.0493 31.79 12.5727 37.0644 16.3017 38.645C14.0111 36.2431 13.8813 33.4888 13.8813 31.79V27.8638Z" fill="#FE7D06"/>
</svg>
