<svg width="189" height="51" viewBox="0 0 189 51" fill="none" xmlns="http://www.w3.org/2000/svg">
<path d="M26.4438 20.6562C26.247 16.73 25.9853 14.6206 23.3681 12.0425C20.0306 8.70313 18.787 5.48 21.536 0.5C22.2563 3.83938 22.518 6.82812 25.1352 8.645C27.7524 10.4619 29.911 15.3837 26.4438 20.6562ZM21.5381 20.6562C21.4062 18.5469 21.2764 17.4913 19.8359 16.0269C18.0688 14.2681 17.3485 12.5694 18.854 9.875C19.2476 11.6919 19.3125 13.2744 20.7509 14.2119C22.1893 15.1494 23.433 17.8456 21.536 20.6581L21.5381 20.6562ZM33.3804 39.1719H45.2896C46.0099 39.1719 46.2716 39.6406 45.8131 40.1675C45.8131 40.1675 41.167 45.5 34.756 45.5H11.7896L0.73255 40.1675C0.274019 39.6406 0.470831 39.1719 1.19108 39.1719H12.9684C11.3332 38.4106 8.91074 35.0694 8.91074 30.9106V22.1206H37.57V22.8238C38.487 22.1206 39.5988 21.7681 40.7755 21.7681C42.4107 21.7681 45.4865 23.2925 45.4865 25.9288C45.4865 29.7369 42.6725 31.1431 41.0372 32.1406C41.0372 32.1406 37.9615 34.3081 35.8029 36.8281C35.0826 37.9419 34.2325 38.8212 33.3825 39.1719H33.3804ZM40.7734 23.3525C39.7265 23.3525 38.418 23.7631 37.5679 25.6381V30.5019C37.5679 31.1469 37.503 31.9081 37.3711 32.5531C38.8116 31.2631 40.5117 30.3856 40.5117 30.3856C41.5586 29.7406 43.6523 28.5106 43.6523 26.1088C43.7172 24.41 41.9501 23.3525 40.7734 23.3525ZM13.8813 24.0556H12.0493V26.4575H13.8813V24.0556ZM13.8813 27.8637H12.0493V31.79C12.0493 31.79 12.5727 37.0644 16.3017 38.645C14.0111 36.2431 13.8813 33.4887 13.8813 31.79V27.8637Z" fill="#FE7D06"/>
<path d="M58.517 24V6.54545H65.5057C66.7898 6.54545 67.8608 6.7358 68.7188 7.11648C69.5767 7.49716 70.2216 8.02557 70.6534 8.7017C71.0852 9.37216 71.3011 10.1449 71.3011 11.0199C71.3011 11.7017 71.1648 12.3011 70.892 12.8182C70.6193 13.3295 70.2443 13.75 69.767 14.0795C69.2955 14.4034 68.7557 14.6335 68.1477 14.7699V14.9403C68.8125 14.9687 69.4347 15.1562 70.0142 15.5028C70.5994 15.8494 71.0739 16.3352 71.4375 16.9602C71.8011 17.5795 71.983 18.3182 71.983 19.1761C71.983 20.1023 71.7528 20.929 71.2926 21.6562C70.8381 22.3778 70.1648 22.9489 69.2727 23.3693C68.3807 23.7898 67.2813 24 65.9744 24H58.517ZM62.2074 20.983H65.2159C66.2443 20.983 66.9943 20.7869 67.4659 20.3949C67.9375 19.9972 68.1733 19.4687 68.1733 18.8097C68.1733 18.3267 68.0568 17.9006 67.8239 17.5312C67.5909 17.1619 67.2585 16.8722 66.8267 16.6619C66.4006 16.4517 65.892 16.3466 65.3011 16.3466H62.2074V20.983ZM62.2074 13.8494H64.9432C65.4489 13.8494 65.8977 13.7614 66.2898 13.5852C66.6875 13.4034 67 13.1477 67.2273 12.8182C67.4602 12.4886 67.5767 12.0938 67.5767 11.6335C67.5767 11.0028 67.3523 10.4943 66.9034 10.108C66.4602 9.72159 65.8295 9.52841 65.0114 9.52841H62.2074V13.8494ZM80.2308 24.2557C78.907 24.2557 77.7621 23.9744 76.7962 23.4119C75.8359 22.8437 75.0945 22.054 74.5717 21.0426C74.049 20.0256 73.7876 18.8466 73.7876 17.5057C73.7876 16.1534 74.049 14.9716 74.5717 13.9602C75.0945 12.9432 75.8359 12.1534 76.7962 11.5909C77.7621 11.0227 78.907 10.7386 80.2308 10.7386C81.5547 10.7386 82.6967 11.0227 83.657 11.5909C84.6229 12.1534 85.3672 12.9432 85.8899 13.9602C86.4126 14.9716 86.674 16.1534 86.674 17.5057C86.674 18.8466 86.4126 20.0256 85.8899 21.0426C85.3672 22.054 84.6229 22.8437 83.657 23.4119C82.6967 23.9744 81.5547 24.2557 80.2308 24.2557ZM80.2479 21.4432C80.8501 21.4432 81.353 21.2727 81.7564 20.9318C82.1598 20.5852 82.4638 20.1136 82.6683 19.517C82.8786 18.9205 82.9837 18.2415 82.9837 17.4801C82.9837 16.7188 82.8786 16.0398 82.6683 15.4432C82.4638 14.8466 82.1598 14.375 81.7564 14.0284C81.353 13.6818 80.8501 13.5085 80.2479 13.5085C79.6399 13.5085 79.1286 13.6818 78.7138 14.0284C78.3047 14.375 77.995 14.8466 77.7848 15.4432C77.5803 16.0398 77.478 16.7188 77.478 17.4801C77.478 18.2415 77.5803 18.9205 77.7848 19.517C77.995 20.1136 78.3047 20.5852 78.7138 20.9318C79.1286 21.2727 79.6399 21.4432 80.2479 21.4432ZM89.0348 24V10.9091H92.495V13.2188H92.6484C92.9212 12.4517 93.3757 11.8466 94.0121 11.4034C94.6484 10.9602 95.4098 10.7386 96.2962 10.7386C97.1939 10.7386 97.9581 10.9631 98.5888 11.4119C99.2195 11.8551 99.6399 12.4574 99.8501 13.2188H99.9865C100.254 12.4688 100.737 11.8693 101.435 11.4205C102.14 10.9659 102.972 10.7386 103.933 10.7386C105.154 10.7386 106.146 11.1278 106.907 11.9062C107.674 12.679 108.058 13.7756 108.058 15.196V24H104.435V15.9119C104.435 15.1847 104.242 14.6392 103.856 14.2756C103.469 13.9119 102.987 13.7301 102.407 13.7301C101.748 13.7301 101.234 13.9403 100.864 14.3608C100.495 14.7756 100.31 15.3239 100.31 16.0057V24H96.7905V15.8352C96.7905 15.1932 96.6058 14.6818 96.2365 14.3011C95.8729 13.9205 95.3928 13.7301 94.7962 13.7301C94.3928 13.7301 94.0291 13.8324 93.7053 14.0369C93.3871 14.2358 93.1342 14.517 92.9467 14.8807C92.7592 15.2386 92.6655 15.6591 92.6655 16.142V24H89.0348ZM131.949 12.6562H128.216C128.148 12.1733 128.009 11.7443 127.798 11.3693C127.588 10.9886 127.318 10.6648 126.989 10.3977C126.659 10.1307 126.278 9.92614 125.847 9.78409C125.42 9.64205 124.957 9.57102 124.457 9.57102C123.554 9.57102 122.767 9.79545 122.097 10.2443C121.426 10.6875 120.906 11.3352 120.537 12.1875C120.168 13.0341 119.983 14.0625 119.983 15.2727C119.983 16.517 120.168 17.5625 120.537 18.4091C120.912 19.2557 121.435 19.8949 122.105 20.3267C122.776 20.7585 123.551 20.9744 124.432 20.9744C124.926 20.9744 125.384 20.9091 125.804 20.7784C126.23 20.6477 126.608 20.4574 126.938 20.2074C127.267 19.9517 127.54 19.642 127.756 19.2784C127.977 18.9148 128.131 18.5 128.216 18.0341L131.949 18.0511C131.852 18.8523 131.611 19.625 131.224 20.3693C130.844 21.108 130.33 21.7699 129.682 22.3551C129.04 22.9347 128.273 23.3949 127.381 23.7358C126.494 24.071 125.491 24.2386 124.372 24.2386C122.815 24.2386 121.423 23.8864 120.196 23.1818C118.974 22.4773 118.009 21.4574 117.298 20.1222C116.594 18.7869 116.241 17.1705 116.241 15.2727C116.241 13.3693 116.599 11.75 117.315 10.4148C118.031 9.07955 119.003 8.0625 120.23 7.36364C121.457 6.65909 122.838 6.30682 124.372 6.30682C125.384 6.30682 126.321 6.44886 127.185 6.73295C128.054 7.01705 128.824 7.43182 129.494 7.97727C130.165 8.51704 130.71 9.17898 131.131 9.96307C131.557 10.7472 131.83 11.6449 131.949 12.6562ZM138.26 24.2472C137.425 24.2472 136.68 24.1023 136.027 23.8125C135.374 23.517 134.857 23.0824 134.476 22.5085C134.101 21.929 133.913 21.2074 133.913 20.3438C133.913 19.6165 134.047 19.0057 134.314 18.5114C134.581 18.017 134.945 17.6193 135.405 17.3182C135.865 17.017 136.388 16.7898 136.973 16.6364C137.564 16.483 138.183 16.375 138.831 16.3125C139.592 16.233 140.206 16.1591 140.672 16.0909C141.138 16.017 141.476 15.9091 141.686 15.767C141.896 15.625 142.001 15.4148 142.001 15.1364V15.0852C142.001 14.5455 141.831 14.1278 141.49 13.8324C141.155 13.5369 140.678 13.3892 140.058 13.3892C139.405 13.3892 138.885 13.5341 138.499 13.8239C138.112 14.108 137.857 14.4659 137.732 14.8977L134.374 14.625C134.544 13.8295 134.879 13.142 135.379 12.5625C135.879 11.9773 136.524 11.5284 137.314 11.2159C138.109 10.8977 139.03 10.7386 140.075 10.7386C140.803 10.7386 141.499 10.8239 142.163 10.9943C142.834 11.1648 143.428 11.429 143.945 11.7869C144.467 12.1449 144.879 12.6051 145.18 13.1676C145.482 13.7244 145.632 14.392 145.632 15.1705V24H142.189V22.1847H142.087C141.876 22.5938 141.595 22.9545 141.243 23.267C140.891 23.5739 140.467 23.8153 139.973 23.9915C139.479 24.1619 138.908 24.2472 138.26 24.2472ZM139.3 21.7415C139.834 21.7415 140.305 21.6364 140.714 21.4261C141.124 21.2102 141.445 20.9205 141.678 20.5568C141.911 20.1932 142.027 19.7812 142.027 19.321V17.9318C141.913 18.0057 141.757 18.0739 141.558 18.1364C141.365 18.1932 141.146 18.2472 140.902 18.2983C140.658 18.3437 140.413 18.3864 140.169 18.4261C139.925 18.4602 139.703 18.4915 139.504 18.5199C139.078 18.5824 138.706 18.6818 138.388 18.8182C138.07 18.9545 137.822 19.1392 137.646 19.3722C137.47 19.5994 137.382 19.8835 137.382 20.2244C137.382 20.7188 137.561 21.0966 137.919 21.358C138.283 21.6136 138.743 21.7415 139.3 21.7415ZM155.489 10.9091V13.6364H147.409V10.9091H155.489ZM149.259 24V9.96307C149.259 9.0142 149.443 8.22727 149.812 7.60227C150.188 6.97727 150.699 6.50852 151.347 6.19602C151.994 5.88352 152.73 5.72727 153.554 5.72727C154.111 5.72727 154.619 5.76989 155.08 5.85511C155.545 5.94034 155.892 6.01705 156.119 6.08523L155.472 8.8125C155.33 8.76705 155.153 8.72443 154.943 8.68466C154.739 8.64489 154.528 8.625 154.312 8.625C153.778 8.625 153.406 8.75 153.196 9C152.986 9.24432 152.881 9.58807 152.881 10.0312V24H149.259ZM163.204 24.2557C161.857 24.2557 160.698 23.983 159.727 23.4375C158.761 22.8864 158.016 22.108 157.494 21.1023C156.971 20.0909 156.71 18.8949 156.71 17.5142C156.71 16.1676 156.971 14.9858 157.494 13.9688C158.016 12.9517 158.752 12.1591 159.701 11.5909C160.656 11.0227 161.775 10.7386 163.059 10.7386C163.923 10.7386 164.727 10.8778 165.471 11.1562C166.221 11.429 166.874 11.8409 167.431 12.392C167.994 12.9432 168.431 13.6364 168.744 14.4716C169.056 15.3011 169.212 16.2727 169.212 17.3864V18.3835H158.158V16.1335H165.795C165.795 15.6108 165.681 15.1477 165.454 14.7443C165.227 14.3409 164.911 14.0256 164.508 13.7983C164.11 13.5653 163.647 13.4489 163.119 13.4489C162.567 13.4489 162.079 13.5767 161.653 13.8324C161.232 14.0824 160.903 14.4205 160.664 14.8466C160.425 15.267 160.303 15.7358 160.298 16.2528V18.392C160.298 19.0398 160.417 19.5994 160.656 20.071C160.9 20.5426 161.244 20.9062 161.687 21.1619C162.13 21.4176 162.656 21.5455 163.263 21.5455C163.667 21.5455 164.036 21.4886 164.371 21.375C164.707 21.2614 164.994 21.0909 165.232 20.8636C165.471 20.6364 165.653 20.358 165.778 20.0284L169.136 20.25C168.965 21.0568 168.616 21.7614 168.087 22.3636C167.565 22.9602 166.888 23.4261 166.059 23.7614C165.235 24.0909 164.283 24.2557 163.204 24.2557ZM161.67 9.22159L163.477 5.34375H166.835L164.235 9.22159H161.67Z" fill="white"/>
<path d="M66.2614 37.5341L64.7557 37.9602C64.661 37.7093 64.5213 37.4654 64.3366 37.2287C64.1567 36.9872 63.9105 36.7884 63.598 36.6321C63.2855 36.4759 62.8854 36.3977 62.3977 36.3977C61.7301 36.3977 61.1738 36.5516 60.7287 36.8594C60.2884 37.1624 60.0682 37.5483 60.0682 38.017C60.0682 38.4337 60.2197 38.7628 60.5227 39.0043C60.8258 39.2457 61.2992 39.447 61.9432 39.608L63.5625 40.0057C64.5379 40.2424 65.2647 40.6046 65.7429 41.0923C66.2211 41.5753 66.4602 42.1979 66.4602 42.9602C66.4602 43.5852 66.2803 44.1439 65.9205 44.6364C65.5653 45.1288 65.0682 45.517 64.429 45.8011C63.7898 46.0852 63.0464 46.2273 62.1989 46.2273C61.0862 46.2273 60.1652 45.9858 59.4361 45.5028C58.7069 45.0199 58.2453 44.3144 58.0511 43.3864L59.642 42.9886C59.7936 43.5758 60.08 44.0161 60.5014 44.3097C60.9276 44.6032 61.4839 44.75 62.1705 44.75C62.9517 44.75 63.572 44.5843 64.0312 44.2528C64.4953 43.9167 64.7273 43.5142 64.7273 43.0455C64.7273 42.6667 64.5947 42.3494 64.3295 42.0938C64.0644 41.8333 63.6572 41.6392 63.108 41.5114L61.2898 41.0852C60.2907 40.8485 59.5568 40.4815 59.0881 39.9844C58.6241 39.4825 58.392 38.8551 58.392 38.1023C58.392 37.4867 58.5649 36.9422 58.9105 36.4688C59.2609 35.9953 59.7367 35.6236 60.3381 35.3537C60.9441 35.0838 61.6307 34.9489 62.3977 34.9489C63.4773 34.9489 64.3248 35.1856 64.9403 35.6591C65.5606 36.1326 66.0009 36.7576 66.2614 37.5341ZM70.6594 39.4375V46H68.9833V31.4545H70.6594V36.7955H70.8015C71.0572 36.232 71.4407 35.7846 71.9521 35.4531C72.4682 35.117 73.1547 34.9489 74.0117 34.9489C74.7551 34.9489 75.4061 35.098 75.9648 35.3963C76.5236 35.6899 76.9568 36.142 77.2646 36.7528C77.5771 37.3589 77.7333 38.1307 77.7333 39.0682V46H76.0572V39.1818C76.0572 38.3153 75.8323 37.6454 75.3825 37.1719C74.9374 36.6937 74.3195 36.4545 73.5288 36.4545C72.9795 36.4545 72.4871 36.5705 72.0515 36.8026C71.6206 37.0346 71.2797 37.3731 71.0288 37.8182C70.7826 38.2633 70.6594 38.803 70.6594 39.4375ZM85.2315 46.2273C84.2467 46.2273 83.3826 45.9929 82.6392 45.5241C81.9006 45.0554 81.3229 44.3996 80.9062 43.5568C80.4943 42.714 80.2884 41.7292 80.2884 40.6023C80.2884 39.4659 80.4943 38.474 80.9062 37.6264C81.3229 36.7789 81.9006 36.1207 82.6392 35.652C83.3826 35.1832 84.2467 34.9489 85.2315 34.9489C86.2164 34.9489 87.0781 35.1832 87.8168 35.652C88.5601 36.1207 89.1378 36.7789 89.5497 37.6264C89.9664 38.474 90.1747 39.4659 90.1747 40.6023C90.1747 41.7292 89.9664 42.714 89.5497 43.5568C89.1378 44.3996 88.5601 45.0554 87.8168 45.5241C87.0781 45.9929 86.2164 46.2273 85.2315 46.2273ZM85.2315 44.7216C85.9796 44.7216 86.5952 44.5298 87.0781 44.1463C87.5611 43.7628 87.9186 43.2585 88.1506 42.6335C88.3826 42.0085 88.4986 41.3314 88.4986 40.6023C88.4986 39.8731 88.3826 39.1937 88.1506 38.5639C87.9186 37.9342 87.5611 37.4252 87.0781 37.0369C86.5952 36.6487 85.9796 36.4545 85.2315 36.4545C84.4834 36.4545 83.8679 36.6487 83.3849 37.0369C82.902 37.4252 82.5445 37.9342 82.3125 38.5639C82.0805 39.1937 81.9645 39.8731 81.9645 40.6023C81.9645 41.3314 82.0805 42.0085 82.3125 42.6335C82.5445 43.2585 82.902 43.7628 83.3849 44.1463C83.8679 44.5298 84.4834 44.7216 85.2315 44.7216ZM92.7333 50.0909V35.0909H94.3526V36.8239H94.5515C94.6746 36.6345 94.8451 36.393 95.0629 36.0994C95.2854 35.8011 95.6026 35.536 96.0146 35.304C96.4312 35.0672 96.9947 34.9489 97.7049 34.9489C98.6235 34.9489 99.4331 35.1785 100.134 35.6378C100.835 36.0971 101.382 36.7481 101.775 37.5909C102.167 38.4337 102.364 39.428 102.364 40.5739C102.364 41.7292 102.167 42.7306 101.775 43.5781C101.382 44.4209 100.837 45.0743 100.141 45.5384C99.445 45.9976 98.6424 46.2273 97.7333 46.2273C97.0326 46.2273 96.4715 46.1113 96.0501 45.8793C95.6287 45.6425 95.3043 45.375 95.0771 45.0767C94.8498 44.7737 94.6746 44.5227 94.5515 44.3239H94.4094V50.0909H92.7333ZM94.381 40.5455C94.381 41.3693 94.5018 42.0961 94.7433 42.7259C94.9847 43.3509 95.3375 43.8409 95.8015 44.196C96.2655 44.5464 96.8337 44.7216 97.506 44.7216C98.2068 44.7216 98.7915 44.5369 99.2603 44.1676C99.7338 43.7936 100.089 43.2917 100.326 42.6619C100.567 42.0275 100.688 41.322 100.688 40.5455C100.688 39.7784 100.569 39.0871 100.333 38.4716C100.101 37.8513 99.748 37.3613 99.2745 37.0014C98.8058 36.6368 98.2163 36.4545 97.506 36.4545C96.8242 36.4545 96.2513 36.6274 95.7873 36.973C95.3233 37.3139 94.9729 37.7921 94.7362 38.4077C94.4994 39.0185 94.381 39.7311 94.381 40.5455Z" fill="white"/>
</svg>
